<svg width="32" height="39" viewBox="0 0 32 39" fill="none" xmlns="http://www.w3.org/2000/svg">
<path d="M16 23.3353C20.2282 23.3353 23.6667 19.8968 23.6667 15.6686C23.6667 11.4405 20.2282 8.00195 16 8.00195C11.7718 8.00195 8.33334 11.4405 8.33334 15.6686C8.33334 19.8968 11.7718 23.3353 16 23.3353ZM16 11.8353C18.1141 11.8353 19.8333 13.5545 19.8333 15.6686C19.8333 17.7827 18.1141 19.502 16 19.502C13.8859 19.502 12.1667 17.7827 12.1667 15.6686C12.1667 13.5545 13.8859 11.8353 16 11.8353Z" fill="white"/>
<path d="M14.8884 38.3118C15.2128 38.5435 15.6014 38.668 16.0001 38.668C16.3987 38.668 16.7873 38.5435 17.1117 38.3118C17.6944 37.8997 31.389 28.0116 31.3334 15.6683C31.3334 7.21388 24.4545 0.334961 16.0001 0.334961C7.54565 0.334961 0.666734 7.21388 0.666734 15.6587C0.61115 28.0116 14.3057 37.8997 14.8884 38.3118ZM16.0001 4.16829C22.3423 4.16829 27.5001 9.32605 27.5001 15.6779C27.5403 24.184 19.0897 31.822 16.0001 34.327C12.9123 31.82 4.45982 24.1802 4.50007 15.6683C4.50007 9.32604 9.65782 4.16829 16.0001 4.16829Z" fill="white"/>
</svg>
